<svg width="92" height="60" viewBox="0 0 92 60" fill="none" xmlns="http://www.w3.org/2000/svg">
<g opacity="0.8">
<path d="M46 15C45.702 15.149 45.447 15.6421 45.2847 16.0323H46.7153C46.553 15.6421 46.298 15.149 46 15Z" fill="#7B8B76"/>
<path d="M44.2581 17.8387C44.3546 17.549 44.6319 17.1148 44.8734 16.8065H47.1266C47.3681 17.1148 47.6454 17.549 47.7419 17.8387H44.2581Z" fill="#7B8B76"/>
<path d="M43.5983 18.6129C43.4602 18.8088 43.3287 19.0267 43.2258 19.2581C43.2064 19.3016 43.1875 19.3446 43.1689 19.3871H48.8311C48.8125 19.3446 48.7936 19.3016 48.7742 19.2581C48.6713 19.0267 48.5398 18.8088 48.4017 18.6129H43.5983Z" fill="#7B8B76"/>
<path d="M42.4997 21.1935C42.5723 20.9345 42.6843 20.5902 42.8497 20.1613H49.1503C49.3157 20.5902 49.4277 20.9345 49.5003 21.1935H42.4997Z" fill="#7B8B76"/>
<path d="M38.9542 21.9677C36.9258 22.1554 34.4566 22.4266 32.074 22.7419H59.926C57.5434 22.4266 55.0742 22.1554 53.0458 21.9677H38.9542Z" fill="#7B8B76"/>
<path d="M24.0038 24.2903C25.0218 24.0093 26.0942 23.7453 27.2073 23.5161H64.7927C65.9058 23.7453 66.9782 24.0093 67.9962 24.2903H24.0038Z" fill="#7B8B76"/>
<path d="M21.4365 25.0645C20.6357 25.3257 19.8865 25.5878 19.1984 25.8387H72.8016C72.1135 25.5878 71.3643 25.3257 70.5635 25.0645H21.4365Z" fill="#7B8B76"/>
<path d="M16.5338 26.8555L16.5342 26.8554C16.7286 26.7791 16.9352 26.698 17.1534 26.6129H74.8466C75.0646 26.6979 75.2709 26.7789 75.4651 26.8551L75.4662 26.8555L75.4666 26.8557L75.4667 26.8557L75.4705 26.8572L75.4707 26.8573C75.6588 26.9311 75.8354 27.0004 76 27.0645C75.9752 27.2461 75.934 27.4407 75.8778 27.6452H16.1222C16.066 27.4407 16.0248 27.2461 16 27.0645C16.1647 27.0004 16.3414 26.9311 16.5295 26.8572L16.5329 26.8559L16.5338 26.8555Z" fill="#7B8B76"/>
<path d="M16.3858 28.4194C16.4862 28.6707 16.6029 28.9301 16.7336 29.1935H75.2664C75.3971 28.9301 75.5138 28.6707 75.6142 28.4194H16.3858Z" fill="#7B8B76"/>
<path d="M17.6367 30.7419C17.4652 30.4864 17.3029 30.227 17.1517 29.9677H74.8483C74.6971 30.227 74.5348 30.4864 74.3633 30.7419H17.6367Z" fill="#7B8B76"/>
<path d="M18.1936 31.5161C18.4011 31.7851 18.617 32.0449 18.8387 32.2903C18.9166 32.3765 18.9944 32.4626 19.0725 32.5484H72.9275C73.0056 32.4626 73.0834 32.3765 73.1613 32.2903C73.383 32.0449 73.5989 31.7851 73.8064 31.5161H18.1936Z" fill="#7B8B76"/>
<path d="M20.6496 34.0968C20.3494 33.8497 20.0709 33.5899 19.8043 33.3226H40.4324C39.8965 33.5611 39.2978 33.8263 38.6311 34.0968H20.6496Z" fill="#7B8B76"/>
<path d="M21.7502 34.871C22.2568 35.1698 22.8273 35.4326 23.4881 35.6452H33.6058C34.6694 35.4247 35.6381 35.1571 36.5186 34.871H21.7502Z" fill="#7B8B76"/>
<path d="M38.3871 37.0645C38.4972 36.8513 38.6146 36.6353 38.7371 36.4194H53.2629C53.3854 36.6353 53.5028 36.8513 53.6129 37.0645C53.6808 37.196 53.747 37.325 53.8115 37.4516H38.1885C38.253 37.325 38.3192 37.196 38.3871 37.0645Z" fill="#7B8B76"/>
<path d="M37.8011 38.2258C37.6689 38.4958 37.5463 38.7536 37.4337 39H54.5663C54.4537 38.7536 54.3311 38.4958 54.1989 38.2258H37.8011Z" fill="#7B8B76"/>
<path d="M36.7396 40.8064C36.8286 40.4883 36.9491 40.1456 37.0991 39.7742H54.9009C55.0509 40.1456 55.1714 40.4883 55.2604 40.8064H36.7396Z" fill="#7B8B76"/>
<path d="M36.5806 41.5806C36.5449 41.8841 36.8056 42.2469 37.3244 42.6129H54.6756C55.1944 42.2469 55.4551 41.8841 55.4194 41.5806H36.5806Z" fill="#7B8B76"/>
<path d="M46 44.5484C42.9563 44.5484 40.4799 44.0343 38.831 43.3871H53.169C51.5201 44.0343 49.0437 44.5484 46 44.5484Z" fill="#7B8B76"/>
<path d="M39.6999 34.871H52.3001C52.4684 35.1198 52.6373 35.3797 52.8023 35.6452H39.1977C39.3627 35.3797 39.5316 35.1198 39.6999 34.871Z" fill="#7B8B76"/>
<path d="M40.248 34.0968H51.752C51.5331 33.8023 51.3243 33.5396 51.1363 33.3226H40.8637C40.6757 33.5396 40.4669 33.8023 40.248 34.0968Z" fill="#7B8B76"/>
<path d="M71.3504 34.0968C71.6506 33.8497 71.9291 33.5899 72.1957 33.3226H51.5676C52.1035 33.5611 52.7022 33.8263 53.3689 34.0968H71.3504Z" fill="#7B8B76"/>
<path d="M70.2498 34.871C69.7432 35.1698 69.1727 35.4326 68.5119 35.6452H58.3942C57.3306 35.4247 56.3619 35.1571 55.4814 34.871H70.2498Z" fill="#7B8B76"/>
</g>
</svg>
